{
	"asset":{
		"generator":"Khronos glTF Blender I/O v4.0.44",
		"version":"2.0"
	},
	"scene":0,
	"scenes":[
		{
			"name":"Scene",
			"nodes":[
				0
			]
		}
	],
	"nodes":[
		{
			"mesh":0,
			"name":"Object_4.001"
		}
	],
	"materials":[
		{
			"doubleSided":true,
			"name":"Bench.001",
			"pbrMetallicRoughness":{}
		}
	],
	"meshes":[
		{
			"name":"Object_0.001",
			"primitives":[
				{
					"attributes":{
						"POSITION":0,
						"NORMAL":1,
						"TEXCOORD_0":2,
						"TEXCOORD_1":3,
						"TEXCOORD_2":4,
						"TEXCOORD_3":5
					},
					"indices":6,
					"material":0
				}
			]
		}
	],
	"accessors":[
		{
			"bufferView":0,
			"componentType":5126,
			"count":23635,
			"max":[
				0.7777870297431946,
				4.113901138305664,
				0.05200052261352539
			],
			"min":[
				-3.881317377090454,
				0,
				-9.247803688049316
			],
			"type":"VEC3"
		},
		{
			"bufferView":1,
			"componentType":5126,
			"count":23635,
			"type":"VEC3"
		},
		{
			"bufferView":2,
			"componentType":5126,
			"count":23635,
			"type":"VEC2"
		},
		{
			"bufferView":3,
			"componentType":5126,
			"count":23635,
			"type":"VEC2"
		},
		{
			"bufferView":4,
			"componentType":5126,
			"count":23635,
			"type":"VEC2"
		},
		{
			"bufferView":5,
			"componentType":5126,
			"count":23635,
			"type":"VEC2"
		},
		{
			"bufferView":6,
			"componentType":5123,
			"count":117468,
			"type":"SCALAR"
		}
	],
	"bufferViews":[
		{
			"buffer":0,
			"byteLength":283620,
			"byteOffset":0,
			"target":34962
		},
		{
			"buffer":0,
			"byteLength":283620,
			"byteOffset":283620,
			"target":34962
		},
		{
			"buffer":0,
			"byteLength":189080,
			"byteOffset":567240,
			"target":34962
		},
		{
			"buffer":0,
			"byteLength":189080,
			"byteOffset":756320,
			"target":34962
		},
		{
			"buffer":0,
			"byteLength":189080,
			"byteOffset":945400,
			"target":34962
		},
		{
			"buffer":0,
			"byteLength":189080,
			"byteOffset":1134480,
			"target":34962
		},
		{
			"buffer":0,
			"byteLength":234936,
			"byteOffset":1323560,
			"target":34963
		}
	],
	"buffers":[
		{
			"byteLength":1558496,
			"uri":"Bench.bin"
		}
	]
}
