{
	"asset":{
		"generator":"Khronos glTF Blender I/O v4.0.44",
		"version":"2.0"
	},
	"extensionsUsed":[
		"KHR_materials_specular",
		"KHR_materials_ior"
	],
	"scene":0,
	"scenes":[
		{
			"name":"Scene",
			"nodes":[
				0
			]
		}
	],
	"nodes":[
		{
			"mesh":0,
			"name":"Brunnen_C",
			"rotation":[
				0.7071068286895752,
				0,
				0,
				0.7071068286895752
			]
		}
	],
	"materials":[
		{
			"doubleSided":true,
			"extensions":{
				"KHR_materials_specular":{
					"specularFactor":0
				},
				"KHR_materials_ior":{
					"ior":1.4500000476837158
				}
			},
			"name":"Brunnen_O_Material_u1_v1",
			"pbrMetallicRoughness":{
				"baseColorFactor":[
					0.800000011920929,
					0.800000011920929,
					0.800000011920929,
					1
				],
				"metallicFactor":0
			}
		},
		{
			"doubleSided":true,
			"extensions":{
				"KHR_materials_specular":{
					"specularFactor":0
				},
				"KHR_materials_ior":{
					"ior":1.4500000476837158
				}
			},
			"name":"bottom",
			"pbrMetallicRoughness":{
				"baseColorFactor":[
					0.800000011920929,
					0.800000011920929,
					0.800000011920929,
					1
				],
				"metallicFactor":0
			}
		}
	],
	"meshes":[
		{
			"name":"Brunnen_C",
			"primitives":[
				{
					"attributes":{
						"POSITION":0,
						"NORMAL":1,
						"TEXCOORD_0":2
					},
					"indices":3,
					"material":0
				},
				{
					"attributes":{
						"POSITION":4,
						"NORMAL":5,
						"TEXCOORD_0":6
					},
					"indices":7,
					"material":1
				}
			]
		}
	],
	"accessors":[
		{
			"bufferView":0,
			"componentType":5126,
			"count":1088766,
			"max":[
				5.849215984344482,
				5.9045491218566895,
				-0.009759999811649323
			],
			"min":[
				-5.684909820556641,
				-5.689583778381348,
				-13.601141929626465
			],
			"type":"VEC3"
		},
		{
			"bufferView":1,
			"componentType":5126,
			"count":1088766,
			"type":"VEC3"
		},
		{
			"bufferView":2,
			"componentType":5126,
			"count":1088766,
			"type":"VEC2"
		},
		{
			"bufferView":3,
			"componentType":5125,
			"count":2683893,
			"type":"SCALAR"
		},
		{
			"bufferView":4,
			"componentType":5126,
			"count":1787,
			"max":[
				4.942286014556885,
				5.020185947418213,
				-0.009759999811649323
			],
			"min":[
				-4.752293109893799,
				-4.6790618896484375,
				-0.009759999811649323
			],
			"type":"VEC3"
		},
		{
			"bufferView":5,
			"componentType":5126,
			"count":1787,
			"type":"VEC3"
		},
		{
			"bufferView":6,
			"componentType":5126,
			"count":1787,
			"type":"VEC2"
		},
		{
			"bufferView":7,
			"componentType":5123,
			"count":3675,
			"type":"SCALAR"
		}
	],
	"bufferViews":[
		{
			"buffer":0,
			"byteLength":13065192,
			"byteOffset":0,
			"target":34962
		},
		{
			"buffer":0,
			"byteLength":13065192,
			"byteOffset":13065192,
			"target":34962
		},
		{
			"buffer":0,
			"byteLength":8710128,
			"byteOffset":26130384,
			"target":34962
		},
		{
			"buffer":0,
			"byteLength":10735572,
			"byteOffset":34840512,
			"target":34963
		},
		{
			"buffer":0,
			"byteLength":21444,
			"byteOffset":45576084,
			"target":34962
		},
		{
			"buffer":0,
			"byteLength":21444,
			"byteOffset":45597528,
			"target":34962
		},
		{
			"buffer":0,
			"byteLength":14296,
			"byteOffset":45618972,
			"target":34962
		},
		{
			"buffer":0,
			"byteLength":7350,
			"byteOffset":45633268,
			"target":34963
		}
	],
	"buffers":[
		{
			"byteLength":45640620,
			"uri":"Fountain.bin"
		}
	]
}
