{
	"asset":{
		"generator":"Khronos glTF Blender I/O v4.0.44",
		"version":"2.0"
	},
	"extensionsUsed":[
		"KHR_materials_specular",
		"KHR_materials_ior"
	],
	"scene":0,
	"scenes":[
		{
			"name":"Scene",
			"nodes":[
				0
			]
		}
	],
	"nodes":[
		{
			"mesh":0,
			"name":"Lamp",
			"rotation":[
				0.7071068286895752,
				0,
				0,
				0.7071068286895752
			],
			"scale":[
				0.009999999776482582,
				0.009999999776482582,
				0.009999999776482582
			],
			"translation":[
				1.848962664604187,
				5.6483893394470215,
				0
			]
		}
	],
	"materials":[
		{
			"doubleSided":true,
			"extensions":{
				"KHR_materials_specular":{
					"specularColorFactor":[
						2.0,
						2.0,
						2.0
					]
				},
				"KHR_materials_ior":{
					"ior":1.4500000476837158
				}
			},
			"name":"Emissive.001",
			"pbrMetallicRoughness":{
				"baseColorFactor":[
					0.800000011920929,
					0.800000011920929,
					0.800000011920929,
					1
				],
				"metallicFactor":0,
				"roughnessFactor":0.2928932309150696
			}
		},
		{
			"doubleSided":true,
			"extensions":{
				"KHR_materials_specular":{
					"specularColorFactor":[
						2.0,
						2.0,
						2.0
					]
				},
				"KHR_materials_ior":{
					"ior":1.4500000476837158
				}
			},
			"name":"Body.001",
			"pbrMetallicRoughness":{
				"baseColorFactor":[
					0.3469387888908386,
					0.3469387888908386,
					0.3469387888908386,
					1
				],
				"metallicFactor":0,
				"roughnessFactor":0.2928932309150696
			}
		},
		{
			"doubleSided":true,
			"extensions":{
				"KHR_materials_specular":{
					"specularColorFactor":[
						2.0,
						2.0,
						2.0
					]
				},
				"KHR_materials_ior":{
					"ior":1.4500000476837158
				}
			},
			"name":"Glass.001",
			"pbrMetallicRoughness":{
				"baseColorFactor":[
					0.7244898080825806,
					0.7244898080825806,
					0.7244898080825806,
					0.15000000596046448
				],
				"metallicFactor":0,
				"roughnessFactor":0.2928932309150696
			}
		}
	],
	"meshes":[
		{
			"name":"Mesh.004",
			"primitives":[
				{
					"attributes":{
						"POSITION":0,
						"NORMAL":1,
						"TEXCOORD_0":2
					},
					"indices":3,
					"material":0
				},
				{
					"attributes":{
						"POSITION":4,
						"NORMAL":5,
						"TEXCOORD_0":6
					},
					"indices":7,
					"material":1
				},
				{
					"attributes":{
						"POSITION":8,
						"NORMAL":9,
						"TEXCOORD_0":10
					},
					"indices":11,
					"material":2
				}
			]
		}
	],
	"accessors":[
		{
			"bufferView":0,
			"componentType":5126,
			"count":635,
			"max":[
				6.741691589355469,
				6.741691589355469,
				0.6956912875175476
			],
			"min":[
				-6.741691589355469,
				-6.741691589355469,
				-27.719919204711914
			],
			"type":"VEC3"
		},
		{
			"bufferView":1,
			"componentType":5126,
			"count":635,
			"type":"VEC3"
		},
		{
			"bufferView":2,
			"componentType":5126,
			"count":635,
			"type":"VEC2"
		},
		{
			"bufferView":3,
			"componentType":5123,
			"count":3312,
			"type":"SCALAR"
		},
		{
			"bufferView":4,
			"componentType":5126,
			"count":18482,
			"max":[
				33.56097412109375,
				34.74281311035156,
				564.099853515625
			],
			"min":[
				-231.62538146972656,
				-34.742897033691406,
				-117.34857177734375
			],
			"type":"VEC3"
		},
		{
			"bufferView":5,
			"componentType":5126,
			"count":18482,
			"type":"VEC3"
		},
		{
			"bufferView":6,
			"componentType":5126,
			"count":18482,
			"type":"VEC2"
		},
		{
			"bufferView":7,
			"componentType":5123,
			"count":103752,
			"type":"SCALAR"
		},
		{
			"bufferView":8,
			"componentType":5126,
			"count":350,
			"max":[
				27.536645889282227,
				27.49529266357422,
				18.531667709350586
			],
			"min":[
				-27.453943252563477,
				-27.495296478271484,
				-14.289016723632812
			],
			"type":"VEC3"
		},
		{
			"bufferView":9,
			"componentType":5126,
			"count":350,
			"type":"VEC3"
		},
		{
			"bufferView":10,
			"componentType":5126,
			"count":350,
			"type":"VEC2"
		},
		{
			"bufferView":11,
			"componentType":5123,
			"count":1872,
			"type":"SCALAR"
		}
	],
	"bufferViews":[
		{
			"buffer":0,
			"byteLength":7620,
			"byteOffset":0,
			"target":34962
		},
		{
			"buffer":0,
			"byteLength":7620,
			"byteOffset":7620,
			"target":34962
		},
		{
			"buffer":0,
			"byteLength":5080,
			"byteOffset":15240,
			"target":34962
		},
		{
			"buffer":0,
			"byteLength":6624,
			"byteOffset":20320,
			"target":34963
		},
		{
			"buffer":0,
			"byteLength":221784,
			"byteOffset":26944,
			"target":34962
		},
		{
			"buffer":0,
			"byteLength":221784,
			"byteOffset":248728,
			"target":34962
		},
		{
			"buffer":0,
			"byteLength":147856,
			"byteOffset":470512,
			"target":34962
		},
		{
			"buffer":0,
			"byteLength":207504,
			"byteOffset":618368,
			"target":34963
		},
		{
			"buffer":0,
			"byteLength":4200,
			"byteOffset":825872,
			"target":34962
		},
		{
			"buffer":0,
			"byteLength":4200,
			"byteOffset":830072,
			"target":34962
		},
		{
			"buffer":0,
			"byteLength":2800,
			"byteOffset":834272,
			"target":34962
		},
		{
			"buffer":0,
			"byteLength":3744,
			"byteOffset":837072,
			"target":34963
		}
	],
	"buffers":[
		{
			"byteLength":840816,
			"uri":"StreetLamp.bin"
		}
	]
}
